<svg width="587" height="48" viewBox="0 0 587 48" fill="none" xmlns="http://www.w3.org/2000/svg">
<path d="M24.9062 34.9062C24.9062 33.3021 24.3333 32.0521 23.1875 31.1562C22.0625 30.2604 20.0729 29.3333 17.2188 28.375C14.3646 27.4167 12.0312 26.4896 10.2188 25.5938C4.32292 22.6979 1.375 18.7188 1.375 13.6562C1.375 11.1354 2.10417 8.91667 3.5625 7C5.04167 5.0625 7.125 3.5625 9.8125 2.5C12.5 1.41667 15.5208 0.875 18.875 0.875C22.1458 0.875 25.0729 1.45833 27.6562 2.625C30.2604 3.79167 32.2812 5.45833 33.7188 7.625C35.1562 9.77083 35.875 12.2292 35.875 15H24.9375C24.9375 13.1458 24.3646 11.7083 23.2188 10.6875C22.0938 9.66667 20.5625 9.15625 18.625 9.15625C16.6667 9.15625 15.1146 9.59375 13.9688 10.4688C12.8438 11.3229 12.2812 12.4167 12.2812 13.75C12.2812 14.9167 12.9062 15.9792 14.1562 16.9375C15.4062 17.875 17.6042 18.8542 20.75 19.875C23.8958 20.875 26.4792 21.9583 28.5 23.125C33.4167 25.9583 35.875 29.8646 35.875 34.8438C35.875 38.8229 34.375 41.9479 31.375 44.2188C28.375 46.4896 24.2604 47.625 19.0312 47.625C15.3438 47.625 12 46.9688 9 45.6562C6.02083 44.3229 3.77083 42.5104 2.25 40.2188C0.75 37.9062 0 35.25 0 32.25H11C11 34.6875 11.625 36.4896 12.875 37.6562C14.1458 38.8021 16.1979 39.375 19.0312 39.375C20.8438 39.375 22.2708 38.9896 23.3125 38.2188C24.375 37.4271 24.9062 36.3229 24.9062 34.9062ZM67.3438 38.5H52.3125L49.6875 47H37.9688L54.6562 1.5H64.9688L81.7812 47H70L67.3438 38.5ZM54.9375 30.0312H64.7188L59.8125 14.25L54.9375 30.0312ZM96.0938 38.5625H115.188V47H85.125V1.5H96.0938V38.5625ZM148.031 27.7188H130.781V38.5625H151.156V47H119.812V1.5H151.219V9.96875H130.781V19.5625H148.031V27.7188ZM179.094 34.9062C179.094 33.3021 178.521 32.0521 177.375 31.1562C176.25 30.2604 174.26 29.3333 171.406 28.375C168.552 27.4167 166.219 26.4896 164.406 25.5938C158.51 22.6979 155.562 18.7188 155.562 13.6562C155.562 11.1354 156.292 8.91667 157.75 7C159.229 5.0625 161.312 3.5625 164 2.5C166.688 1.41667 169.708 0.875 173.062 0.875C176.333 0.875 179.26 1.45833 181.844 2.625C184.448 3.79167 186.469 5.45833 187.906 7.625C189.344 9.77083 190.062 12.2292 190.062 15H179.125C179.125 13.1458 178.552 11.7083 177.406 10.6875C176.281 9.66667 174.75 9.15625 172.812 9.15625C170.854 9.15625 169.302 9.59375 168.156 10.4688C167.031 11.3229 166.469 12.4167 166.469 13.75C166.469 14.9167 167.094 15.9792 168.344 16.9375C169.594 17.875 171.792 18.8542 174.938 19.875C178.083 20.875 180.667 21.9583 182.688 23.125C187.604 25.9583 190.062 29.8646 190.062 34.8438C190.062 38.8229 188.562 41.9479 185.562 44.2188C182.562 46.4896 178.448 47.625 173.219 47.625C169.531 47.625 166.188 46.9688 163.188 45.6562C160.208 44.3229 157.958 42.5104 156.438 40.2188C154.938 37.9062 154.188 35.25 154.188 32.25H165.188C165.188 34.6875 165.812 36.4896 167.062 37.6562C168.333 38.8021 170.385 39.375 173.219 39.375C175.031 39.375 176.458 38.9896 177.5 38.2188C178.562 37.4271 179.094 36.3229 179.094 34.9062Z" fill="#2F2F2F"/>
<path d="M211.625 47V1.5H226.281C230.302 1.5 233.917 2.41667 237.125 4.25C240.333 6.0625 242.833 8.63542 244.625 11.9688C246.438 15.2812 247.354 19 247.375 23.125V25.2188C247.375 29.3854 246.49 33.125 244.719 36.4375C242.969 39.7292 240.49 42.3125 237.281 44.1875C234.094 46.0417 230.531 46.9792 226.594 47H211.625ZM222.594 9.96875V38.5625H226.406C229.552 38.5625 231.969 37.4479 233.656 35.2188C235.344 32.9688 236.188 29.6354 236.188 25.2188V23.25C236.188 18.8542 235.344 15.5417 233.656 13.3125C231.969 11.0833 229.51 9.96875 226.281 9.96875H222.594ZM278.156 38.5H263.125L260.5 47H248.781L265.469 1.5H275.781L292.594 47H280.812L278.156 38.5ZM265.75 30.0312H275.531L270.625 14.25L265.75 30.0312ZM319.406 34.9062C319.406 33.3021 318.833 32.0521 317.688 31.1562C316.562 30.2604 314.573 29.3333 311.719 28.375C308.865 27.4167 306.531 26.4896 304.719 25.5938C298.823 22.6979 295.875 18.7188 295.875 13.6562C295.875 11.1354 296.604 8.91667 298.062 7C299.542 5.0625 301.625 3.5625 304.312 2.5C307 1.41667 310.021 0.875 313.375 0.875C316.646 0.875 319.573 1.45833 322.156 2.625C324.76 3.79167 326.781 5.45833 328.219 7.625C329.656 9.77083 330.375 12.2292 330.375 15H319.438C319.438 13.1458 318.865 11.7083 317.719 10.6875C316.594 9.66667 315.062 9.15625 313.125 9.15625C311.167 9.15625 309.615 9.59375 308.469 10.4688C307.344 11.3229 306.781 12.4167 306.781 13.75C306.781 14.9167 307.406 15.9792 308.656 16.9375C309.906 17.875 312.104 18.8542 315.25 19.875C318.396 20.875 320.979 21.9583 323 23.125C327.917 25.9583 330.375 29.8646 330.375 34.8438C330.375 38.8229 328.875 41.9479 325.875 44.2188C322.875 46.4896 318.76 47.625 313.531 47.625C309.844 47.625 306.5 46.9688 303.5 45.6562C300.521 44.3229 298.271 42.5104 296.75 40.2188C295.25 37.9062 294.5 35.25 294.5 32.25H305.5C305.5 34.6875 306.125 36.4896 307.375 37.6562C308.646 38.8021 310.698 39.375 313.531 39.375C315.344 39.375 316.771 38.9896 317.812 38.2188C318.875 37.4271 319.406 36.3229 319.406 34.9062ZM374.031 47H363.125V28H346.969V47H336V1.5H346.969V19.5625H363.125V1.5H374.031V47ZM381 47V1.5H397.344C403.198 1.5 407.646 2.57292 410.688 4.71875C413.75 6.86458 415.281 9.97917 415.281 14.0625C415.281 16.4167 414.74 18.4271 413.656 20.0938C412.573 21.7604 410.979 22.9896 408.875 23.7812C411.25 24.4062 413.073 25.5729 414.344 27.2812C415.615 28.9896 416.25 31.0729 416.25 33.5312C416.25 37.9896 414.833 41.3438 412 43.5938C409.188 45.8229 405.01 46.9583 399.469 47H381ZM391.969 27.6562V38.5625H399.156C401.135 38.5625 402.656 38.1146 403.719 37.2188C404.781 36.3021 405.312 35.0208 405.312 33.375C405.312 29.5833 403.427 27.6771 399.656 27.6562H391.969ZM391.969 20.4688H397.688C400.083 20.4479 401.792 20.0104 402.812 19.1562C403.833 18.3021 404.344 17.0417 404.344 15.375C404.344 13.4583 403.792 12.0833 402.688 11.25C401.583 10.3958 399.802 9.96875 397.344 9.96875H391.969V20.4688ZM460.844 25.1875C460.844 29.625 460.021 33.5521 458.375 36.9688C456.729 40.3854 454.385 43.0208 451.344 44.875C448.323 46.7083 444.875 47.625 441 47.625C437.125 47.625 433.688 46.7396 430.688 44.9688C427.688 43.1771 425.344 40.625 423.656 37.3125C421.99 34 421.115 30.1979 421.031 25.9062V23.3438C421.031 18.8854 421.844 14.9583 423.469 11.5625C425.115 8.14583 427.458 5.51042 430.5 3.65625C433.562 1.80208 437.042 0.875 440.938 0.875C444.792 0.875 448.229 1.79167 451.25 3.625C454.271 5.45833 456.615 8.07292 458.281 11.4688C459.969 14.8438 460.823 18.7188 460.844 23.0938V25.1875ZM449.688 23.2812C449.688 18.7604 448.927 15.3333 447.406 13C445.906 10.6458 443.75 9.46875 440.938 9.46875C435.438 9.46875 432.531 13.5938 432.219 21.8438L432.188 25.1875C432.188 29.6458 432.927 33.0729 434.406 35.4688C435.885 37.8646 438.083 39.0625 441 39.0625C443.771 39.0625 445.906 37.8854 447.406 35.5312C448.906 33.1771 449.667 29.7917 449.688 25.375V23.2812ZM491.656 38.5H476.625L474 47H462.281L478.969 1.5H489.281L506.094 47H494.312L491.656 38.5ZM479.25 30.0312H489.031L484.125 14.25L479.25 30.0312ZM526.344 30.9375H520.406V47H509.438V1.5H527.344C532.74 1.5 536.958 2.69792 540 5.09375C543.042 7.48958 544.562 10.875 544.562 15.25C544.562 18.4167 543.917 21.0417 542.625 23.125C541.354 25.2083 539.354 26.8958 536.625 28.1875L546.125 46.5312V47H534.375L526.344 30.9375ZM520.406 22.4688H527.344C529.427 22.4688 530.99 21.9271 532.031 20.8438C533.094 19.7396 533.625 18.2083 533.625 16.25C533.625 14.2917 533.094 12.7604 532.031 11.6562C530.969 10.5312 529.406 9.96875 527.344 9.96875H520.406V22.4688ZM551.188 47V1.5H565.844C569.865 1.5 573.479 2.41667 576.688 4.25C579.896 6.0625 582.396 8.63542 584.188 11.9688C586 15.2812 586.917 19 586.938 23.125V25.2188C586.938 29.3854 586.052 33.125 584.281 36.4375C582.531 39.7292 580.052 42.3125 576.844 44.1875C573.656 46.0417 570.094 46.9792 566.156 47H551.188ZM562.156 9.96875V38.5625H565.969C569.115 38.5625 571.531 37.4479 573.219 35.2188C574.906 32.9688 575.75 29.6354 575.75 25.2188V23.25C575.75 18.8542 574.906 15.5417 573.219 13.3125C571.531 11.0833 569.073 9.96875 565.844 9.96875H562.156Z" fill="#25AF8E"/>
</svg>
